<?xml version="1.0" standalone="no"?><!DOCTYPE svg PUBLIC "-//W3C//DTD SVG 1.1//EN" "http://www.w3.org/Graphics/SVG/1.1/DTD/svg11.dtd"><svg t="1601363090036" class="icon" viewBox="0 0 1024 1024" version="1.1" xmlns="http://www.w3.org/2000/svg" p-id="13325" xmlns:xlink="http://www.w3.org/1999/xlink" width="200" height="200"><defs><style type="text/css"></style></defs><path d="M511.134034 0C228.84561 0 0.010741 228.841006 0.010741 511.123293c0 282.279218 228.834868 511.120224 511.123293 511.120224 282.278195 0 511.118178-228.839983 511.118178-511.119201C1022.252212 228.841006 793.412229 0 511.134034 0L511.134034 0zM511.134034 1003.992256c-122.1344 0-233.942684-44.757073-320.138232-118.584606 4.846952-172.827915 146.141034-311.525634 320.138232-311.525634-113.103396 0-204.795499-91.684941-204.795499-204.790384 0-113.100327 91.68801-204.794476 204.795499-204.794476 113.106465 0 204.789361 91.689033 204.789361 204.794476 0 113.10135-91.682895 204.790384-204.789361 204.790384 173.993107 0 315.288211 138.697719 320.132094 311.525634C745.071604 959.236206 633.263319 1003.992256 511.134034 1003.992256L511.134034 1003.992256z" p-id="13326" fill="#8a8a8a"></path></svg>