<?xml version="1.0" standalone="no"?><!DOCTYPE svg PUBLIC "-//W3C//DTD SVG 1.1//EN" "http://www.w3.org/Graphics/SVG/1.1/DTD/svg11.dtd"><svg t="1598523115745" class="icon" viewBox="0 0 1024 1024" version="1.1" xmlns="http://www.w3.org/2000/svg" p-id="2301" xmlns:xlink="http://www.w3.org/1999/xlink" width="200" height="200"><defs><style type="text/css"></style></defs><path d="M593.063 236.974l314.592 0c10.659 0 19.3-8.642 19.3-19.3 0-10.659-8.642-19.3-19.3-19.3L593.063 198.374c-10.659 0-19.3 8.642-19.3 19.3C573.762 228.331 582.404 236.974 593.063 236.974zM907.655 345.055 593.063 345.055c-10.659 0-19.3 8.642-19.3 19.3s8.642 19.3 19.3 19.3l314.592 0c10.659 0 19.3-8.642 19.3-19.3C926.955 353.696 918.314 345.055 907.655 345.055zM376.901 96.082 203.199 96.082c-58.626 0-106.151 47.525-106.151 106.151l0 173.702c0 58.626 47.525 106.151 106.151 106.151l173.702 0c58.626 0 106.151-47.525 106.151-106.151L483.052 202.233C483.052 143.608 435.526 96.082 376.901 96.082zM444.451 375.935c0 37.307-30.244 67.551-67.551 67.551L203.199 443.486c-37.307 0-67.551-30.244-67.551-67.551L135.648 202.233c0-37.307 30.244-67.551 67.551-67.551l173.702 0c37.307 0 67.551 30.244 67.551 67.551L444.452 375.935zM907.655 644.207 593.063 644.207c-10.659 0-19.3 8.642-19.3 19.3 0 10.659 8.642 19.3 19.3 19.3l314.592 0c10.659 0 19.3-8.642 19.3-19.3C926.955 652.849 918.314 644.207 907.655 644.207zM907.655 790.889 593.063 790.889c-10.659 0-19.3 8.642-19.3 19.3s8.642 19.3 19.3 19.3l314.592 0c10.659 0 19.3-8.642 19.3-19.3S918.314 790.889 907.655 790.889zM376.901 541.916 203.199 541.916c-58.626 0-106.151 47.525-106.151 106.151L97.048 821.77c0 58.626 47.525 106.151 106.151 106.151l173.702 0c58.626 0 106.151-47.525 106.151-106.151L483.052 648.068C483.052 589.442 435.526 541.916 376.901 541.916zM444.451 821.769c0 37.307-30.244 67.551-67.551 67.551L203.199 889.32c-37.307 0-67.551-30.244-67.551-67.551L135.648 648.068c0-37.307 30.244-67.551 67.551-67.551l173.702 0c37.307 0 67.551 30.244 67.551 67.551L444.452 821.769z" p-id="2302" fill="#f4ea2a"></path></svg>