<?xml version="1.0" standalone="no"?><!DOCTYPE svg PUBLIC "-//W3C//DTD SVG 1.1//EN" "http://www.w3.org/Graphics/SVG/1.1/DTD/svg11.dtd"><svg t="1601343991474" class="icon" viewBox="0 0 1024 1024" version="1.1" xmlns="http://www.w3.org/2000/svg" p-id="1227" xmlns:xlink="http://www.w3.org/1999/xlink" width="200" height="200"><defs><style type="text/css"></style></defs><path d="M508.347733 1024C312.4224 1024 102.4 970.581333 102.4 871.5264c0-72.0896 88.8832-131.720533 270.301867-148.309333 10.376533-2.048 16.622933 4.164267 20.7872 14.5408 0 10.3424 24.917333 36.795733 14.5408 36.795733-173.056 16.5888-239.104 53.418667-239.104 96.4608 0 57.582933 123.733333 98.542933 344.098133 98.542933 218.3168 0 344.132267-40.96 344.132267-98.542933 0-40.96-66.013867-78.301867-243.268267-96.4608-10.410667 0 12.458667-29.013333 14.5408-36.795733 0-10.376533 10.410667-16.622933 20.821333-14.5408 183.466667 16.5888 272.349867 76.219733 272.349867 148.309333C914.3296 970.581333 704.341333 1024 508.347733 1024z m1.809067-120.490667l-16.964267-17.476266c-12.731733-13.1072-332.288-322.833067-332.288-520.021334C160.904533 166.570667 316.757333 0 511.726933 0c195.037867 0 351.368533 166.6048 351.368534 368.196267 0 197.188267-319.556267 506.914133-332.288 520.021333l-20.650667 15.325867zM512 60.279467c-160.5632 0-292.5568 137.557333-292.5568 304.469333 0 131.1744 197.973333 355.157333 292.5568 448.477867 96.6656-93.320533 292.5568-317.303467 292.5568-448.477867 0-166.912-131.9936-304.469333-292.5568-304.469333z m0 421.649066c-81.8176 0-146.295467-66.628267-146.295467-150.596266 0-81.783467 66.628267-150.596267 146.261334-150.596267 81.8176 0 146.261333 66.628267 146.261333 150.596267 2.184533 83.968-62.293333 150.596267-146.261333 150.596266z m0-240.981333c-48.776533 0-87.7568 40.823467-87.7568 90.385067 0 49.5616 38.468267 90.350933 87.7568 90.350933 49.288533 0 87.7568-40.789333 87.7568-90.350933 0-51.643733-38.980267-90.350933-87.7568-90.350934z" p-id="1228" fill="#ffffff"></path></svg>