<?xml version="1.0" standalone="no"?><!DOCTYPE svg PUBLIC "-//W3C//DTD SVG 1.1//EN" "http://www.w3.org/Graphics/SVG/1.1/DTD/svg11.dtd"><svg t="1601346951554" class="icon" viewBox="0 0 1024 1024" version="1.1" xmlns="http://www.w3.org/2000/svg" p-id="2173" xmlns:xlink="http://www.w3.org/1999/xlink" width="200" height="200"><defs><style type="text/css"></style></defs><path d="M533.819471 0v78.769231H185.501932A68.214154 68.214154 0 0 0 118.15424 147.456v660.873846c0 38.045538 30.483692 68.608 67.977846 68.608h578.638769a67.977846 67.977846 0 0 0 67.899077-68.135384V402.510769h78.769231v406.291693c0 81.132308-65.614769 146.904615-146.668308 146.904615H186.132086A147.062154 147.062154 0 0 1 39.385009 808.251077V147.456C39.385009 66.008615 105.157317 0 185.501932 0h348.317539z m390.065231 11.342769l51.672615 51.672616-519.876923 519.876923-51.672616-51.751385 519.876924-519.876923z" p-id="2174" fill="#8a8a8a"></path></svg>